<?xml version="1.0" encoding="utf-8"?>
<!-- Generator: Adobe Illustrator 22.1.0, SVG Export Plug-In . SVG Version: 6.00 Build 0)  -->
<svg version="1.1" id="Layer_1" xmlns="http://www.w3.org/2000/svg" xmlns:xlink="http://www.w3.org/1999/xlink" x="0px" y="0px"
	 viewBox="0 0 500 500" style="enable-background:new 0 0 500 500;" xml:space="preserve">
<style type="text/css">
	.st0{fill:#E52421;}
</style>
<path class="st0" d="M479.2,149.1c0,0-4.8-34.7-18.6-50c-17.8-20.2-37.9-20.2-46.8-21C348.4,73.3,250,72.5,250,72.5
	s-98.4,0.8-163.8,5.6c-8.9,0.8-29,1.6-46.8,21c-14.5,15.3-18.6,50-18.6,50S16,190.3,16,231.4v37.9c0,41.2,4.8,81.5,4.8,81.5
	s4.8,34.7,18.6,50c17.8,20.2,41.2,19.4,51.6,21.8c37.1,4,159,4.8,159,4.8s98.4,0,163.8-5.6c8.9-0.8,29-1.6,46.8-21
	c13.7-15.3,18.6-50,18.6-50s4.8-41.2,4.8-81.5v-37.9C484,190.3,479.2,149.1,479.2,149.1z M250,345.4l-106-106h63.6v-84.8h84.8v84.8
	H356L250,345.4z"/>
</svg>
